<svg xmlns="http://www.w3.org/2000/svg" fill="none" height="32" viewBox="0 0 32 32" width="32"><g clip-rule="evenodd" fill="#ffffff" fill-rule="evenodd"><path d="m17.744 18.8c.24.304.528.648.528.648 1.768-.056 2.448-1.216 2.448-1.216 0-2.576-1.152-4.664-1.152-4.664-1.152-.864-2.248-.84-2.248-.84l-.112.128c1.36.416 1.992 1.016 1.992 1.016-.832-.456-1.648-.68-2.408-.768-.576-.064-1.128-.048-1.616.016-.0419 0-.0777.0061-.1181.013l-.0179.003c-.28.024-.96.128-1.816.504-.296.136-.472.232-.472.232s.664-.632 2.104-1.048l-.08-.096s-1.096-.024-2.248.84c0 0-1.152 2.088-1.152 4.664 0 0 .672 1.16 2.44 1.216 0 0 .296-.36.536-.664-1.016-.304-1.4-.944-1.4-.944s.08.056.224.136c.008.008.016.016.032.024.012.008.024.014.036.02s.024.012.036.02c.2.112.4.2.584.272.328.128.72.256 1.176.344.6.112 1.304.152 2.072.008.376-.064.76-.176 1.16-.344.28-.104.592-.256.92-.472 0 0-.4.656-1.448.952zm-4.008-2.2c0-.488.36-.888.816-.888s.824.4.816.888c0 .488-.36.888-.816.888-.448 0-.816-.4-.816-.888zm2.92 0c0-.488.36-.888.816-.888s.816.4.816.888-.36.888-.816.888c-.448 0-.816-.4-.816-.888z" fill="#ffffff000"/><path d="m16 0c8.8366 0 16 7.16344 16 16 0 8.8366-7.1634 16-16 16-8.83656 0-16-7.1634-16-16 0-8.83656 7.16344-16 16-16zm-7 10.648c0-.912.736-1.648 1.64-1.648h10.72c.904 0 1.64.736 1.64 1.648v14.352l-1.72-1.52-.968-.896-1.024-.952.424 1.48h-9.072c-.904 0-1.64-.736-1.64-1.648z" fill="#ffffff000"/></g></svg>